{"title":"Rychly Prachy (PRAHA - 12.09.2011) - Iveta","uid":6676165,"size":405095304,"categoryP":"porn","categoryS":"movies","magnet":"?xt=urn:btih:6a14b7328b6759e5fc35179272262001b6aace92&amp;dn=Rychly+Prachy+%28PRAHA+-+12.09.2011%29+-+Iveta&amp;tr=udp%3A%2F%2Ftracker.openbittorrent.com%3A80&amp;tr=udp%3A%2F%2Fopen.demonii.com%3A1337&amp;tr=udp%3A%2F%2Ftracker.coppersurfer.tk%3A6969&amp;tr=udp%3A%2F%2Fexodus.desync.com%3A6969","seeders":0,"leechers":0,"uploader":null,"files":4,"time":1316036245,"description":"\n\n                Rychly Prachy (PRAHA - 12.09.2011) - Iveta\n\n  Without advertising kinotip!\n  Without errors on video!\n  \nScreen:         &lt;a href=&quot; http://image.bayimg.com/pakdjaadb.jpg&quot; rel=&quot;nofollow&quot; target=&quot;_NEW&quot;&gt; http://image.bayimg.com/pakdjaadb.jpg&lt;/a&gt;\n\nOficial website: http://rychlyprachy.cz\n\nDirect Link:    &lt;a href=&quot; http://rychlyprachy.cz/video56.cz.html&quot; rel=&quot;nofollow&quot; target=&quot;_NEW&quot;&gt; http://rychlyprachy.cz/video56.cz.html&lt;/a&gt;\n\n\n\nGeneral\nComplete name                    : Rychly Prachy (PRAHA - 12.09.2011) - Iveta.wmv\nFormat                           : Windows Media\nFile size                        : 386 MiB\nDuration                         : 21mn 21s\nOverall bit rate mode            : Constant\nOverall bit rate                 : 2 529 Kbps\nMaximum Overall bit rate         : 2 540 Kbps\nEncoded date                     : UTC 2011-09-13 11:53:54.130\nSfOriginalFPS                    : 300000\n\nVideo\nID                               : 2\nFormat                           : VC-1\nFormat profile                   : MP@ML\nCodec ID                         : WMV3\nCodec ID/Info                    : Windows Media Video 9\nCodec ID/Hint                    : WMV3\nDescription of the codec         : Windows Media Video 9 - Professional\nDuration                         : 21mn 21s\nBit rate mode                    : Constant\nBit rate                         : 2 421 Kbps\nWidth                            : 640 pixels\nHeight                           : 480 pixels\nDisplay aspect ratio             : 4:3\nFrame rate                       : 30.000 fps\nBit depth                        : 8 bits\nScan type                        : Progressive\nCompression mode                 : Lossy\nBits/(Pixel*Frame)               : 0.263\nStream size                      : 370 MiB (96%)\nLanguage                         : Czech\n\nAudio\nID                               : 1\nFormat                           : WMA\nFormat version                   : Version 2\nCodec ID                         : 161\nCodec ID/Info                    : Windows Media Audio\nDescription of the codec         : Windows Media Audio 9.2 -  96 kbps, 44 kHz, stereo (A/V) 1-pass CBR\nDuration                         : 21mn 21s\nBit rate mode                    : Constant\nBit rate                         : 96.0 Kbps\nChannel(s)                       : 2 channels\nSampling rate                    : 44.1 KHz\nBit depth                        : 16 bits\nStream size                      : 14.7 MiB (4%)\nLanguage                         : Czech\n\n\n\n\n\n","torrent":{"xt":"urn:btih:6a14b7328b6759e5fc35179272262001b6aace92","amp;dn":"Rychly+Prachy+%28PRAHA+-+12.09.2011%29+-+Iveta","amp;tr":["udp%3A%2F%2Ftracker.openbittorrent.com%3A80","udp%3A%2F%2Fopen.demonii.com%3A1337","udp%3A%2F%2Ftracker.coppersurfer.tk%3A6969","udp%3A%2F%2Fexodus.desync.com%3A6969"],"infoHash":"6a14b7328b6759e5fc35179272262001b6aace92","infoHashBuffer":{"type":"Buffer","data":[106,20,183,50,139,103,89,229,252,53,23,146,114,38,32,1,182,170,206,146]},"announce":[],"urlList":[]}}